<?xml version="1.0" ?><svg viewBox="0 0 64 64" xmlns="http://www.w3.org/2000/svg"><g data-name="18-airplane" id="_18-airplane"><rect height="4" rx="2" style="fill:#f6f0e5" width="10" x="24" y="5"/><rect height="4" rx="2" style="fill:#f6f0e5" width="10" x="30" y="15"/><polygon points="25 29 17 1 24 1 43 29 25 29" style="fill:#ccc7be"/><rect height="4" rx="2" style="fill:#f6f0e5" width="10" x="24" y="55"/><rect height="4" rx="2" style="fill:#f6f0e5" width="10" x="30" y="45"/><polygon points="25 35 17 63 24 63 43 35 25 35" style="fill:#ccc7be"/><path d="M63,32c0,4-7,6-7,6H9L7,32l2-6H56S63,28,63,32Z" style="fill:#f6f0e5"/><polygon points="15 32 9 43 1 43 7 32 1 21 9 21 15 32" style="fill:#ccc7be"/><rect height="4" rx="2" style="fill:#f6f0e5" width="14" x="1" y="30"/><path d="M56.274,25.039A.97.97,0,0,0,56,25H41.494l-3.4-5.01A3,3,0,0,0,38,14H34.03l-2.715-4H32a3,3,0,0,0,0-6H27.244L24.827.438A1,1,0,0,0,24,0H17a1,1,0,0,0-.962,1.275L22.816,25H12.321L9.878,20.521A1,1,0,0,0,9,20H1a1,1,0,0,0-.878,1.479L4.224,29H3a3,3,0,0,0,0,6H4.225l-4.1,7.521A1,1,0,0,0,1,44H9a1,1,0,0,0,.878-.521s4.929-9.075,4.944-9.112a2.967,2.967,0,0,0,0-4.734C14.807,29.6,13.412,27,13.412,27H55.855C57.686,27.554,62,29.411,62,32s-4.314,4.445-6.145,5H16a1,1,0,0,0,0,2h6.817L16.038,62.726A1,1,0,0,0,17,64h7a1,1,0,0,0,.827-.438L27.244,60H32a3,3,0,0,0,0-6h-.685l2.715-4H38a3,3,0,0,0,.094-5.99l3.4-5.01H56a1.007,1.007,0,0,0,.274-.038C56.59,38.871,64,36.7,64,32S56.59,25.128,56.274,25.039ZM2.685,22H8.406l3.818,7H6.5ZM2,32a1,1,0,0,1,1-1H13a1,1,0,0,1,0,2H3A1,1,0,0,1,2,32ZM8.406,42H2.685L6.5,35h5.722ZM38,16a1,1,0,0,1,0,2H36.744l-1.357-2ZM32,6a1,1,0,0,1,0,2H29.958L28.6,6ZM18.326,2H23.47L39.077,25H24.9ZM32,56a1,1,0,0,1,0,2H28.6l1.357-2Zm6-10a1,1,0,0,1,0,2H35.387l1.357-2ZM23.47,62H18.326L24.9,39h14.18Z"/><path d="M55.553,34.1a1,1,0,0,0,.894,1.79A4.693,4.693,0,0,0,59,32a4.694,4.694,0,0,0-2.553-3.895,1,1,0,0,0-.9,1.787A2.723,2.723,0,0,1,57,32,2.721,2.721,0,0,1,55.553,34.1Z"/></g></svg>